<?xml version="1.0" encoding="utf-8"?>
<!-- Generator: Adobe Illustrator 27.5.0, SVG Export Plug-In . SVG Version: 6.00 Build 0)  -->
<svg version="1.1" id="Layer_1" xmlns="http://www.w3.org/2000/svg" xmlns:xlink="http://www.w3.org/1999/xlink" x="0px" y="0px"
	 viewBox="0 0 2122 2122" style="enable-background:new 0 0 2122 2122;" xml:space="preserve">
<g>
	<rect y="0" style="fill:#FFD22A;" width="2121.32" height="2121.32"/>
	<g>
		<g>
			<path style="fill:#FFFFFF;" d="M1102.52,1151.388c-8.984-8.777-15.265-16.724-19.761-24.789
				c40.827-406.825-391.456-496.798-721.865-251.913c60.257,108.522,84.037,157.149,106.805,172.805
				c1.281,0.83,2.443,1.542,3.728,2.253c30.447,16.605,62.39-23.483,180.97-53.845c199.742-50.999,291.114,99.033,206.5,224.99
				c-65.11,97.017-165.287,122.872-239.711,194.746c-5.619,5.337-11.007,10.912-16.167,16.723
				c-5.525,6.168-10.823,12.691-16.017,19.688c-40.803,55.5-28.121,104.608-18.637,265.843h268.609
				c-26.208-78.865,29.427-217.565,180.79-191.005c92.958,16.367,83.595-57.64,74.865-78.633
				c-8.724-21.112,3.586-39.732,11.56-48.39c8.088-8.54,13.142-22.535,10.391-33.446c-2.75-10.912-14.112-23.365-14.112-23.365
				s13.662-12.453,11.125-30.362c-2.655-17.91-15.01-21.112-20.086-33.565c-5.076-12.454,36.879-23.128,61.2-38.902
				C1185.739,1218.754,1134.184,1182.58,1102.52,1151.388z"/>
			<path style="fill:#FFFFFF;" d="M547.832,1929.949c-9.899,206.301,308.348,219.861,318.163,15.267
				C875.786,1741.225,557.7,1724.276,547.832,1929.949z"/>
		</g>
		<g>
			<path style="fill:#FAFAFA;" d="M1112.928,1140.979c-8.966-8.796-15.265-16.724-19.761-24.788
				c40.827-406.825-391.456-496.799-721.865-251.913c60.257,108.523,83.825,157.462,106.805,172.805
				c1.269,0.848,2.441,1.546,3.728,2.253c30.392,16.705,62.39-23.483,180.97-53.846c199.742-50.999,291.114,99.033,206.499,224.99
				c-65.11,97.017-164.991,123.18-239.711,194.746c-5.597,5.36-10.994,10.923-16.167,16.723
				c-5.512,6.18-10.839,12.679-16.018,19.688c-40.932,55.405-28.121,104.608-18.637,265.843H847.38
				c-26.208-78.865,29.427-217.565,180.79-191.005c92.958,16.367,83.595-57.64,74.865-78.633
				c-8.724-21.111,3.526-39.788,11.56-48.39c8.028-8.596,13.142-22.535,10.391-33.446c-2.75-10.911-14.112-23.365-14.112-23.365
				s13.72-12.461,11.125-30.362c-2.597-17.918-15.011-21.111-20.086-33.565c-5.076-12.454,36.879-23.128,61.2-38.902
				C1196.147,1208.345,1144.657,1172.106,1112.928,1140.979z"/>
			<path style="fill:#FAFAFA;" d="M558.241,1919.541c-9.899,206.301,308.348,219.862,318.163,15.267
				C886.195,1730.816,568.109,1713.867,558.241,1919.541z"/>
		</g>
		<g>
			<path style="fill:#F5F5F5;" d="M1123.337,1130.571c-8.966-8.796-15.265-16.724-19.761-24.789
				c40.827-406.825-391.456-496.798-721.865-251.913c60.257,108.523,83.826,157.462,106.805,172.805
				c1.269,0.847,2.441,1.546,3.728,2.253c30.392,16.705,62.39-23.483,180.97-53.845c199.742-50.999,291.114,99.033,206.499,224.99
				c-65.11,97.017-164.991,123.18-239.711,194.746c-5.596,5.36-10.994,10.923-16.167,16.723
				c-5.512,6.18-10.839,12.679-16.017,19.688c-40.932,55.405-28.121,104.608-18.637,265.843h268.608
				c-26.208-78.865,29.427-217.565,180.79-191.005c92.958,16.367,83.595-57.64,74.865-78.633
				c-8.724-21.112,3.526-39.787,11.56-48.39c8.028-8.596,13.142-22.535,10.391-33.446c-2.75-10.911-14.112-23.365-14.112-23.365
				s13.719-12.461,11.125-30.362c-2.597-17.918-15.01-21.111-20.086-33.565c-5.077-12.454,36.879-23.127,61.2-38.902
				C1206.555,1197.937,1155.065,1161.698,1123.337,1130.571z"/>
			<path style="fill:#F5F5F5;" d="M568.649,1909.133c-9.899,206.301,308.348,219.862,318.163,15.267
				C896.603,1720.408,578.517,1703.459,568.649,1909.133z"/>
		</g>
		<g>
			<path style="fill:#F0F0F0;" d="M1133.745,1120.163c-8.966-8.796-15.265-16.724-19.761-24.789
				c40.827-406.825-391.456-496.798-721.865-251.913c60.257,108.523,83.826,157.462,106.805,172.805
				c1.269,0.848,2.441,1.546,3.728,2.253c30.392,16.705,62.39-23.483,180.97-53.846c199.742-50.999,291.114,99.033,206.499,224.99
				c-65.11,97.017-164.991,123.18-239.711,194.746c-5.596,5.36-10.994,10.923-16.167,16.723c-5.512,6.18-10.84,12.679-16.017,19.688
				c-40.932,55.405-28.121,104.608-18.637,265.843h268.609c-26.208-78.865,29.427-217.565,180.79-191.005
				c92.958,16.367,83.595-57.64,74.865-78.633c-8.724-21.111,3.526-39.788,11.56-48.39c8.028-8.596,13.142-22.535,10.391-33.446
				c-2.75-10.911-14.112-23.365-14.112-23.365s13.719-12.462,11.125-30.362c-2.597-17.918-15.01-21.112-20.086-33.565
				c-5.076-12.454,36.879-23.128,61.2-38.902C1216.964,1187.529,1165.474,1151.289,1133.745,1120.163z"/>
			<path style="fill:#F0F0F0;" d="M579.057,1898.724c-9.899,206.301,308.348,219.861,318.163,15.267
				C907.011,1710,588.925,1693.05,579.057,1898.724z"/>
		</g>
		<g>
			<path style="fill:#EBEBEB;" d="M1144.153,1109.754c-8.966-8.796-15.265-16.724-19.761-24.788
				c40.827-406.825-391.456-496.798-721.865-251.913c60.257,108.523,83.826,157.462,106.805,172.805
				c1.269,0.847,2.441,1.546,3.728,2.253c30.392,16.705,62.39-23.483,180.97-53.845c199.742-50.999,291.114,99.033,206.5,224.99
				c-65.11,97.017-164.991,123.18-239.711,194.746c-5.597,5.36-10.994,10.923-16.167,16.723
				c-5.512,6.18-10.839,12.679-16.017,19.688c-40.932,55.405-28.121,104.608-18.637,265.843h268.609
				c-26.208-78.865,29.427-217.565,180.79-191.005c92.958,16.367,83.595-57.64,74.865-78.633
				c-8.724-21.111,3.526-39.787,11.56-48.39c8.028-8.596,13.142-22.535,10.391-33.446c-2.75-10.911-14.112-23.365-14.112-23.365
				s13.72-12.461,11.125-30.362c-2.597-17.918-15.011-21.111-20.086-33.565c-5.077-12.454,36.879-23.127,61.2-38.902
				C1227.372,1177.12,1175.882,1140.881,1144.153,1109.754z"/>
			<path style="fill:#EBEBEB;" d="M589.466,1888.316c-9.899,206.301,308.348,219.862,318.164,15.267
				C917.42,1699.591,599.334,1682.642,589.466,1888.316z"/>
		</g>
		<g>
			<path style="fill:#E6E6E6;" d="M1154.562,1099.346c-8.966-8.795-15.265-16.724-19.761-24.788
				c40.827-406.825-391.456-496.798-721.865-251.913c60.257,108.522,83.826,157.462,106.805,172.805
				c1.269,0.848,2.441,1.546,3.728,2.253c30.392,16.705,62.39-23.483,180.97-53.846c199.742-50.999,291.114,99.033,206.5,224.99
				c-65.11,97.017-164.992,123.18-239.711,194.746c-5.596,5.36-10.994,10.923-16.167,16.723
				c-5.511,6.18-10.839,12.679-16.017,19.688c-40.932,55.405-28.121,104.608-18.637,265.843h268.609
				c-26.208-78.865,29.427-217.565,180.79-191.005c92.958,16.367,83.595-57.641,74.865-78.633
				c-8.724-21.111,3.526-39.787,11.56-48.39c8.028-8.596,13.142-22.535,10.391-33.446c-2.75-10.911-14.112-23.365-14.112-23.365
				s13.719-12.461,11.125-30.362c-2.597-17.918-15.01-21.111-20.086-33.565c-5.077-12.454,36.879-23.128,61.2-38.902
				C1237.78,1166.712,1186.29,1130.472,1154.562,1099.346z"/>
			<path style="fill:#E6E6E6;" d="M599.874,1877.907c-9.899,206.301,308.348,219.862,318.163,15.267
				C927.828,1689.183,609.742,1672.234,599.874,1877.907z"/>
		</g>
		<g>
			<path style="fill:#E1E1E1;" d="M1164.97,1088.938c-8.966-8.796-15.265-16.724-19.761-24.789
				c40.827-406.825-391.456-496.798-721.865-251.913c60.257,108.522,83.826,157.462,106.805,172.805
				c1.269,0.847,2.441,1.546,3.728,2.253c30.392,16.705,62.39-23.483,180.97-53.845c199.742-51,291.114,99.033,206.5,224.99
				c-65.11,97.017-164.992,123.179-239.711,194.746c-5.597,5.36-10.994,10.923-16.167,16.723
				c-5.512,6.18-10.839,12.679-16.017,19.688c-40.932,55.405-28.121,104.608-18.637,265.843h268.609
				c-26.208-78.865,29.427-217.565,180.79-191.005c92.958,16.367,83.595-57.64,74.865-78.633
				c-8.724-21.111,3.526-39.788,11.56-48.39c8.028-8.596,13.142-22.535,10.391-33.446c-2.75-10.911-14.112-23.365-14.112-23.365
				s13.72-12.461,11.125-30.362c-2.597-17.918-15.011-21.111-20.086-33.565c-5.077-12.454,36.879-23.128,61.2-38.902
				C1248.189,1156.304,1196.699,1120.064,1164.97,1088.938z"/>
			<path style="fill:#E1E1E1;" d="M610.282,1867.499c-9.899,206.301,308.348,219.861,318.164,15.267
				C938.236,1678.775,620.15,1661.825,610.282,1867.499z"/>
		</g>
		<g>
			<path style="fill:#DCDCDC;" d="M1175.379,1078.529c-8.966-8.796-15.265-16.724-19.761-24.788
				c40.827-406.825-391.456-496.798-721.865-251.913c60.257,108.522,83.826,157.462,106.805,172.805
				c1.269,0.847,2.441,1.546,3.728,2.253c30.392,16.706,62.39-23.483,180.97-53.846c199.742-51,291.114,99.033,206.5,224.99
				c-65.11,97.017-164.992,123.179-239.711,194.746c-5.596,5.36-10.994,10.923-16.167,16.723
				c-5.512,6.18-10.839,12.679-16.017,19.688c-40.932,55.405-28.121,104.608-18.637,265.843h268.609
				c-26.208-78.865,29.427-217.565,180.79-191.005c92.958,16.367,83.595-57.64,74.865-78.633
				c-8.724-21.111,3.526-39.787,11.56-48.39c8.028-8.596,13.142-22.535,10.391-33.446c-2.75-10.911-14.112-23.365-14.112-23.365
				s13.719-12.462,11.125-30.362c-2.597-17.918-15.01-21.111-20.086-33.565c-5.077-12.454,36.879-23.128,61.2-38.902
				C1258.597,1145.895,1207.107,1109.656,1175.379,1078.529z"/>
			<path style="fill:#DCDCDC;" d="M620.691,1857.091c-9.899,206.301,308.348,219.862,318.163,15.267
				C948.645,1668.366,630.559,1651.417,620.691,1857.091z"/>
		</g>
		<g>
			<path style="fill:#D8D8D8;" d="M1185.787,1068.121c-8.966-8.795-15.265-16.724-19.761-24.788
				c40.827-406.825-391.456-496.798-721.865-251.913c60.257,108.522,83.826,157.461,106.805,172.805
				c1.269,0.847,2.441,1.546,3.727,2.253c30.392,16.706,62.39-23.483,180.97-53.845c199.742-51,291.114,99.033,206.499,224.99
				c-65.11,97.017-164.992,123.179-239.711,194.746c-5.596,5.36-10.994,10.923-16.167,16.723
				c-5.512,6.18-10.839,12.679-16.017,19.688c-40.931,55.405-28.121,104.608-18.637,265.843h268.609
				c-26.208-78.865,29.427-217.565,180.79-191.005c92.958,16.367,83.595-57.641,74.865-78.633
				c-8.724-21.111,3.526-39.787,11.56-48.39c8.028-8.596,13.142-22.535,10.391-33.446c-2.75-10.911-14.112-23.365-14.112-23.365
				s13.72-12.461,11.125-30.362c-2.597-17.918-15.011-21.111-20.086-33.564c-5.077-12.454,36.879-23.128,61.2-38.902
				C1269.005,1135.487,1217.516,1099.247,1185.787,1068.121z"/>
			<path style="fill:#D8D8D8;" d="M631.099,1846.682c-9.899,206.301,308.348,219.861,318.164,15.267
				C959.053,1657.958,640.967,1641.009,631.099,1846.682z"/>
		</g>
		<g>
			<path style="fill:#D3D3D3;" d="M1196.195,1057.713c-8.966-8.795-15.265-16.724-19.761-24.789
				c40.827-406.825-391.456-496.798-721.865-251.913c60.257,108.523,83.826,157.461,106.805,172.805
				c1.269,0.847,2.441,1.546,3.728,2.253c30.392,16.706,62.39-23.483,180.97-53.845c199.742-51,291.114,99.033,206.5,224.99
				c-65.11,97.017-164.992,123.179-239.711,194.746c-5.597,5.36-10.994,10.923-16.167,16.723
				c-5.512,6.18-10.839,12.679-16.017,19.688c-40.931,55.405-28.121,104.608-18.637,265.843h268.609
				c-26.208-78.865,29.426-217.565,180.79-191.005c92.958,16.367,83.595-57.641,74.865-78.633
				c-8.724-21.111,3.526-39.787,11.559-48.39c8.028-8.596,13.142-22.535,10.391-33.446c-2.75-10.911-14.112-23.365-14.112-23.365
				s13.719-12.462,11.125-30.362c-2.597-17.918-15.01-21.111-20.086-33.565c-5.077-12.454,36.879-23.127,61.2-38.902
				C1279.414,1125.079,1227.924,1088.839,1196.195,1057.713z"/>
			<path style="fill:#D3D3D3;" d="M641.508,1836.274c-9.899,206.301,308.348,219.861,318.163,15.267
				C969.461,1647.55,651.375,1630.6,641.508,1836.274z"/>
		</g>
		<g>
			<path style="fill:#CECECE;" d="M1206.604,1047.304c-8.966-8.796-15.265-16.724-19.761-24.789
				c40.827-406.825-391.456-496.798-721.865-251.913c60.257,108.523,83.826,157.461,106.805,172.805
				c1.269,0.848,2.441,1.546,3.727,2.253c30.392,16.706,62.39-23.483,180.97-53.846c199.742-51,291.114,99.033,206.499,224.99
				c-65.11,97.017-164.992,123.179-239.711,194.746c-5.596,5.36-10.994,10.923-16.167,16.723
				c-5.512,6.18-10.839,12.679-16.017,19.688c-40.931,55.405-28.121,104.608-18.637,265.843h268.609
				c-26.208-78.865,29.426-217.565,180.79-191.005c92.958,16.367,83.595-57.64,74.865-78.633
				c-8.724-21.111,3.526-39.787,11.559-48.39c8.028-8.596,13.142-22.535,10.391-33.446c-2.75-10.911-14.112-23.365-14.112-23.365
				s13.72-12.461,11.125-30.362c-2.597-17.918-15.011-21.111-20.086-33.564c-5.077-12.454,36.879-23.128,61.2-38.902
				C1289.822,1114.67,1238.332,1078.431,1206.604,1047.304z"/>
			<path style="fill:#CECECE;" d="M651.916,1825.866c-9.899,206.301,308.348,219.861,318.163,15.267
				C979.87,1637.141,661.784,1620.192,651.916,1825.866z"/>
		</g>
		<g>
			<path style="fill:#C9C9C9;" d="M1217.012,1036.896c-8.966-8.795-15.265-16.724-19.761-24.788
				c40.827-406.825-391.456-496.798-721.865-251.913c60.257,108.523,83.826,157.461,106.805,172.805
				c1.269,0.847,2.441,1.546,3.727,2.253c30.392,16.706,62.39-23.483,180.97-53.845c199.742-51,291.114,99.033,206.499,224.99
				c-65.11,97.017-164.992,123.179-239.711,194.746c-5.597,5.361-10.994,10.923-16.167,16.723
				c-5.511,6.18-10.839,12.679-16.017,19.688c-40.931,55.406-28.121,104.608-18.637,265.843h268.609
				c-26.208-78.865,29.426-217.565,180.79-191.005c92.958,16.367,83.595-57.641,74.865-78.633
				c-8.724-21.111,3.526-39.787,11.559-48.39c8.028-8.596,13.142-22.535,10.391-33.446c-2.75-10.911-14.112-23.365-14.112-23.365
				s13.72-12.461,11.125-30.362c-2.597-17.918-15.01-21.111-20.086-33.564c-5.077-12.454,36.879-23.127,61.2-38.902
				C1300.23,1104.262,1248.741,1068.022,1217.012,1036.896z"/>
			<path style="fill:#C9C9C9;" d="M662.324,1815.458c-9.899,206.301,308.348,219.861,318.163,15.267
				C990.278,1626.733,672.192,1609.784,662.324,1815.458z"/>
		</g>
		<g>
			<path style="fill:#C4C4C4;" d="M1227.42,1026.487c-8.966-8.795-15.265-16.724-19.761-24.789
				c40.827-406.825-391.456-496.798-721.865-251.913c60.257,108.522,83.826,157.461,106.805,172.805
				c1.269,0.848,2.441,1.546,3.727,2.253c30.392,16.706,62.39-23.483,180.97-53.846c199.742-51,291.114,99.033,206.499,224.99
				c-65.109,97.017-164.992,123.179-239.711,194.746c-5.596,5.36-10.994,10.923-16.167,16.723
				c-5.512,6.18-10.839,12.679-16.017,19.688c-40.931,55.406-28.121,104.608-18.637,265.843h268.609
				c-26.208-78.865,29.426-217.565,180.79-191.005c92.958,16.367,83.595-57.641,74.865-78.634
				c-8.724-21.111,3.526-39.787,11.559-48.39c8.028-8.596,13.142-22.535,10.391-33.446c-2.75-10.911-14.112-23.365-14.112-23.365
				s13.72-12.461,11.125-30.362c-2.597-17.918-15.011-21.111-20.086-33.564c-5.077-12.454,36.879-23.128,61.2-38.902
				C1310.639,1093.854,1259.149,1057.614,1227.42,1026.487z"/>
			<path style="fill:#C4C4C4;" d="M672.733,1805.049c-9.899,206.301,308.348,219.861,318.163,15.267
				C1000.687,1616.324,682.6,1599.375,672.733,1805.049z"/>
		</g>
		<g>
			<path style="fill:#BFBFBF;" d="M1237.829,1016.079c-8.966-8.795-15.265-16.724-19.761-24.789
				c40.827-406.825-391.456-496.798-721.865-251.913c60.257,108.523,83.826,157.461,106.805,172.805
				c1.269,0.847,2.441,1.546,3.727,2.253c30.391,16.706,62.39-23.483,180.97-53.845c199.742-51,291.114,99.033,206.499,224.99
				c-65.109,97.017-164.992,123.179-239.711,194.746c-5.597,5.361-10.994,10.923-16.167,16.723
				c-5.511,6.18-10.839,12.679-16.017,19.688c-40.931,55.406-28.121,104.608-18.637,265.843h268.609
				c-26.208-78.865,29.426-217.565,180.79-191.005c92.958,16.367,83.595-57.641,74.865-78.634
				c-8.724-21.111,3.526-39.787,11.559-48.39c8.028-8.596,13.142-22.535,10.391-33.446c-2.75-10.911-14.112-23.365-14.112-23.365
				s13.719-12.461,11.125-30.362c-2.597-17.918-15.01-21.111-20.086-33.564c-5.077-12.454,36.879-23.128,61.2-38.902
				C1321.047,1083.445,1269.557,1047.205,1237.829,1016.079z"/>
			<path style="fill:#BFBFBF;" d="M683.141,1794.641c-9.899,206.301,308.348,219.861,318.164,15.266
				C1011.095,1605.916,693.009,1588.967,683.141,1794.641z"/>
		</g>
		<g>
			<path style="fill:#BABABA;" d="M1248.237,1005.671c-8.966-8.795-15.265-16.724-19.761-24.789
				c40.827-406.825-391.456-496.798-721.865-251.913c60.257,108.522,83.826,157.461,106.805,172.805
				c1.269,0.848,2.441,1.546,3.727,2.253c30.391,16.706,62.39-23.483,180.97-53.846c199.742-51,291.114,99.033,206.5,224.99
				c-65.109,97.017-164.992,123.179-239.711,194.746c-5.597,5.361-10.994,10.923-16.167,16.724
				c-5.512,6.18-10.839,12.679-16.017,19.688c-40.931,55.406-28.121,104.608-18.637,265.843h268.609
				c-26.208-78.865,29.426-217.565,180.79-191.005c92.958,16.367,83.595-57.641,74.865-78.634
				c-8.724-21.111,3.526-39.787,11.559-48.39c8.028-8.596,13.142-22.535,10.391-33.446c-2.75-10.911-14.112-23.365-14.112-23.365
				s13.72-12.462,11.125-30.363c-2.597-17.918-15.011-21.111-20.086-33.564c-5.077-12.454,36.879-23.128,61.2-38.902
				C1331.455,1073.037,1279.966,1036.797,1248.237,1005.671z"/>
			<path style="fill:#BABABA;" d="M693.549,1784.232c-9.899,206.301,308.348,219.861,318.163,15.267
				C1021.503,1595.508,703.417,1578.559,693.549,1784.232z"/>
		</g>
		<g>
			<path style="fill:#B5B5B5;" d="M1258.645,995.262c-8.965-8.795-15.265-16.723-19.761-24.789
				c40.827-406.825-391.456-496.798-721.865-251.913c60.257,108.522,83.826,157.461,106.805,172.805
				c1.269,0.847,2.441,1.546,3.727,2.253c30.391,16.706,62.39-23.483,180.97-53.845c199.742-51,291.114,99.033,206.499,224.99
				c-65.109,97.017-164.992,123.179-239.711,194.746c-5.597,5.361-10.994,10.923-16.167,16.723
				c-5.511,6.18-10.839,12.679-16.017,19.688c-40.931,55.406-28.121,104.608-18.637,265.843h268.609
				c-26.208-78.865,29.426-217.565,180.79-191.005c92.958,16.367,83.595-57.641,74.865-78.634
				c-8.724-21.111,3.526-39.787,11.559-48.39c8.028-8.596,13.142-22.535,10.391-33.446c-2.75-10.911-14.112-23.365-14.112-23.365
				s13.72-12.461,11.125-30.362c-2.597-17.918-15.011-21.111-20.086-33.564c-5.077-12.454,36.879-23.128,61.2-38.902
				C1341.864,1062.629,1290.374,1026.389,1258.645,995.262z"/>
			<path style="fill:#B5B5B5;" d="M703.958,1773.824c-9.899,206.301,308.348,219.861,318.164,15.266
				C1031.912,1585.099,713.826,1568.15,703.958,1773.824z"/>
		</g>
		<g>
			<path style="fill:#B0B0B0;" d="M1269.054,984.854c-8.966-8.795-15.265-16.724-19.761-24.789
				c40.827-406.825-391.456-496.798-721.865-251.913c60.257,108.523,83.826,157.461,106.805,172.805
				c1.269,0.847,2.441,1.546,3.727,2.253c30.391,16.707,62.39-23.483,180.97-53.846c199.742-51,291.114,99.033,206.5,224.99
				c-65.109,97.017-164.992,123.179-239.711,194.746c-5.597,5.361-10.994,10.923-16.167,16.724
				c-5.512,6.18-10.839,12.679-16.017,19.688c-40.931,55.406-28.121,104.608-18.637,265.843h268.609
				c-26.208-78.865,29.426-217.565,180.79-191.005c92.958,16.367,83.595-57.641,74.865-78.634
				c-8.724-21.111,3.525-39.787,11.559-48.39c8.028-8.596,13.142-22.535,10.391-33.446c-2.75-10.911-14.112-23.365-14.112-23.365
				s13.72-12.462,11.125-30.363c-2.597-17.918-15.01-21.111-20.086-33.564c-5.077-12.454,36.879-23.128,61.2-38.902
				C1352.272,1052.22,1300.782,1015.98,1269.054,984.854z"/>
			<path style="fill:#B0B0B0;" d="M714.366,1763.416c-9.899,206.301,308.348,219.861,318.163,15.267
				C1042.32,1574.691,724.234,1557.742,714.366,1763.416z"/>
		</g>
		<g>
			<path style="fill:#ABABAB;" d="M1279.462,974.446c-8.966-8.795-15.265-16.723-19.761-24.789
				c40.827-406.825-391.456-496.798-721.865-251.913c60.257,108.522,83.826,157.461,106.805,172.805
				c1.269,0.847,2.441,1.546,3.727,2.253c30.391,16.707,62.39-23.483,180.97-53.845c199.742-51,291.114,99.033,206.499,224.99
				c-65.109,97.017-164.992,123.179-239.711,194.746c-5.597,5.361-10.994,10.923-16.167,16.724
				c-5.512,6.18-10.839,12.679-16.017,19.688c-40.931,55.406-28.121,104.608-18.637,265.843h268.609
				c-26.208-78.865,29.426-217.565,180.79-191.005c92.958,16.367,83.595-57.641,74.865-78.634
				c-8.724-21.111,3.526-39.787,11.559-48.39c8.028-8.596,13.142-22.535,10.391-33.446c-2.75-10.911-14.112-23.365-14.112-23.365
				s13.72-12.461,11.125-30.363c-2.597-17.918-15.011-21.111-20.086-33.564c-5.077-12.454,36.879-23.128,61.2-38.902
				C1362.68,1041.812,1311.191,1005.572,1279.462,974.446z"/>
			<path style="fill:#ABABAB;" d="M724.774,1753.007c-9.899,206.301,308.348,219.861,318.163,15.266
				C1052.728,1564.283,734.642,1547.334,724.774,1753.007z"/>
		</g>
		<g>
			<path style="fill:#A6A6A6;" d="M1289.87,964.037c-8.966-8.795-15.265-16.723-19.761-24.788
				c40.827-406.825-391.456-496.798-721.865-251.913c60.257,108.523,83.826,157.46,106.805,172.805
				c1.269,0.847,2.441,1.546,3.727,2.253c30.391,16.707,62.39-23.483,180.97-53.845c199.742-51,291.114,99.033,206.5,224.99
				c-65.109,97.017-164.992,123.179-239.711,194.746c-5.597,5.361-10.994,10.923-16.167,16.724
				c-5.511,6.18-10.839,12.679-16.017,19.688c-40.93,55.406-28.121,104.608-18.637,265.843h268.609
				c-26.208-78.865,29.426-217.565,180.79-191.005c92.958,16.367,83.595-57.641,74.865-78.634
				c-8.724-21.111,3.526-39.787,11.559-48.39c8.028-8.596,13.142-22.535,10.391-33.446c-2.75-10.911-14.112-23.365-14.112-23.365
				s13.72-12.461,11.125-30.363c-2.597-17.918-15.01-21.111-20.086-33.564c-5.077-12.454,36.879-23.128,61.2-38.902
				C1373.089,1031.404,1321.599,995.164,1289.87,964.037z"/>
			<path style="fill:#A6A6A6;" d="M735.183,1742.599c-9.899,206.301,308.348,219.861,318.163,15.266
				C1063.137,1553.874,745.05,1536.925,735.183,1742.599z"/>
		</g>
		<g>
			<path style="fill:#A1A1A1;" d="M1300.279,953.629c-8.965-8.795-15.265-16.723-19.761-24.789
				c40.827-406.825-391.456-496.798-721.865-251.913c60.257,108.522,83.826,157.46,106.805,172.805
				c1.269,0.847,2.441,1.546,3.727,2.253c30.391,16.707,62.39-23.483,180.97-53.845c199.742-51,291.114,99.033,206.5,224.99
				c-65.109,97.017-164.992,123.178-239.711,194.746c-5.597,5.361-10.994,10.923-16.167,16.724
				c-5.512,6.18-10.839,12.679-16.017,19.688c-40.93,55.406-28.121,104.608-18.637,265.843h268.609
				c-26.208-78.865,29.426-217.564,180.79-191.005c92.958,16.367,83.595-57.641,74.865-78.634
				c-8.724-21.111,3.525-39.787,11.559-48.39c8.028-8.596,13.142-22.535,10.391-33.446c-2.75-10.911-14.112-23.365-14.112-23.365
				s13.72-12.461,11.125-30.363c-2.597-17.918-15.011-21.111-20.086-33.564c-5.077-12.454,36.879-23.128,61.2-38.902
				C1383.497,1020.995,1332.008,984.755,1300.279,953.629z"/>
			<path style="fill:#A1A1A1;" d="M745.591,1732.191c-9.899,206.301,308.348,219.861,318.164,15.266
				C1073.545,1543.466,755.459,1526.517,745.591,1732.191z"/>
		</g>
		<g>
			<path style="fill:#9C9C9C;" d="M1310.687,943.221c-8.966-8.795-15.265-16.723-19.761-24.789
				c40.827-406.825-391.456-496.798-721.865-251.913c60.257,108.523,83.826,157.46,106.805,172.805
				c1.269,0.847,2.441,1.546,3.727,2.253c30.391,16.707,62.39-23.483,180.97-53.845c199.742-51,291.114,99.033,206.499,224.99
				c-65.109,97.017-164.992,123.178-239.711,194.746c-5.597,5.361-10.994,10.923-16.167,16.724
				c-5.511,6.18-10.839,12.679-16.017,19.688c-40.93,55.406-28.121,104.608-18.637,265.843h268.609
				c-26.208-78.865,29.426-217.565,180.79-191.005c92.958,16.367,83.595-57.641,74.865-78.634
				c-8.724-21.111,3.526-39.787,11.559-48.39c8.028-8.596,13.142-22.535,10.391-33.446c-2.75-10.911-14.112-23.365-14.112-23.365
				s13.72-12.462,11.125-30.363c-2.597-17.918-15.01-21.111-20.086-33.564c-5.077-12.454,36.879-23.127,61.2-38.902
				C1393.905,1010.587,1342.416,974.347,1310.687,943.221z"/>
			<path style="fill:#9C9C9C;" d="M755.999,1721.782c-9.899,206.301,308.348,219.861,318.163,15.266
				C1083.953,1533.058,765.867,1516.109,755.999,1721.782z"/>
		</g>
		<g>
			<path style="fill:#979797;" d="M1321.095,932.812c-8.966-8.795-15.265-16.723-19.761-24.788
				c40.827-406.825-391.456-496.798-721.865-251.913c60.257,108.522,83.826,157.46,106.805,172.805
				c1.269,0.847,2.441,1.546,3.727,2.253c30.391,16.707,62.39-23.483,180.97-53.846c199.742-51,291.114,99.033,206.5,224.99
				c-65.109,97.017-164.993,123.178-239.711,194.746c-5.597,5.361-10.994,10.923-16.167,16.724
				c-5.512,6.18-10.839,12.679-16.017,19.688c-40.93,55.406-28.121,104.608-18.637,265.843h268.609
				c-26.208-78.865,29.426-217.564,180.79-191.005c92.958,16.367,83.595-57.641,74.865-78.634
				c-8.724-21.111,3.526-39.787,11.559-48.39c8.028-8.596,13.142-22.535,10.391-33.446c-2.75-10.911-14.112-23.365-14.112-23.365
				s13.72-12.461,11.125-30.363c-2.597-17.918-15.011-21.111-20.086-33.564c-5.077-12.454,36.879-23.128,61.2-38.902
				C1404.314,1000.179,1352.824,963.938,1321.095,932.812z"/>
			<path style="fill:#979797;" d="M766.408,1711.374c-9.899,206.301,308.348,219.861,318.163,15.266
				C1094.362,1522.649,776.275,1505.7,766.408,1711.374z"/>
		</g>
		<g>
			<path style="fill:#929292;" d="M1331.504,922.404c-8.966-8.795-15.265-16.723-19.761-24.789
				c40.827-406.824-391.456-496.798-721.865-251.913c60.257,108.523,83.826,157.46,106.805,172.805
				c1.269,0.848,2.441,1.546,3.727,2.253c30.391,16.707,62.39-23.483,180.97-53.845c199.742-51,291.114,99.033,206.5,224.99
				c-65.109,97.017-164.993,123.178-239.711,194.746c-5.597,5.361-10.994,10.923-16.167,16.724
				c-5.511,6.18-10.839,12.679-16.017,19.688c-40.93,55.406-28.121,104.608-18.637,265.843h268.609
				c-26.208-78.865,29.426-217.564,180.79-191.004c92.958,16.367,83.595-57.641,74.865-78.634
				c-8.724-21.111,3.525-39.787,11.559-48.39c8.028-8.596,13.142-22.535,10.391-33.446c-2.75-10.911-14.112-23.365-14.112-23.365
				s13.72-12.461,11.125-30.363c-2.597-17.918-15.01-21.111-20.086-33.564c-5.077-12.454,36.879-23.128,61.2-38.902
				C1414.722,989.77,1363.233,953.53,1331.504,922.404z"/>
			<path style="fill:#929292;" d="M776.816,1700.966c-9.899,206.301,308.348,219.861,318.163,15.266
				C1104.77,1512.241,786.684,1495.292,776.816,1700.966z"/>
		</g>
		<g>
			<path style="fill:#8D8D8D;" d="M1341.912,911.995c-8.965-8.795-15.265-16.723-19.761-24.789
				c40.827-406.825-391.456-496.798-721.865-251.913c60.257,108.523,83.826,157.46,106.805,172.805
				c1.269,0.847,2.441,1.546,3.727,2.253c30.391,16.707,62.39-23.483,180.97-53.846c199.742-51,291.114,99.033,206.5,224.99
				c-65.109,97.017-164.993,123.178-239.711,194.746c-5.597,5.361-10.994,10.923-16.167,16.724
				c-5.511,6.18-10.839,12.679-16.017,19.688c-40.93,55.406-28.121,104.608-18.637,265.843h268.609
				c-26.208-78.865,29.426-217.564,180.79-191.005c92.959,16.367,83.595-57.641,74.865-78.634
				c-8.724-21.111,3.525-39.787,11.559-48.39c8.028-8.596,13.142-22.535,10.391-33.446c-2.75-10.911-14.112-23.365-14.112-23.365
				s13.72-12.461,11.125-30.363c-2.597-17.918-15.011-21.111-20.086-33.564c-5.077-12.454,36.879-23.128,61.199-38.902
				C1425.13,979.362,1373.641,943.122,1341.912,911.995z"/>
			<path style="fill:#8D8D8D;" d="M787.224,1690.557c-9.899,206.301,308.348,219.861,318.163,15.266
				C1115.178,1501.833,797.092,1484.884,787.224,1690.557z"/>
		</g>
		<g>
			<path style="fill:#898989;" d="M1352.321,901.587c-8.966-8.795-15.265-16.723-19.762-24.788
				c40.827-406.825-391.456-496.798-721.865-251.913c60.257,108.522,83.826,157.46,106.805,172.805
				c1.269,0.848,2.441,1.546,3.727,2.253c30.391,16.708,62.39-23.483,180.97-53.845c199.742-51,291.114,99.033,206.5,224.99
				c-65.109,97.017-164.993,123.178-239.711,194.746c-5.597,5.361-10.994,10.923-16.167,16.724
				c-5.512,6.18-10.839,12.679-16.017,19.688c-40.93,55.407-28.121,104.608-18.637,265.843h268.609
				c-26.208-78.865,29.426-217.564,180.79-191.004c92.958,16.367,83.595-57.641,74.865-78.634
				c-8.724-21.111,3.525-39.787,11.559-48.39c8.028-8.596,13.142-22.535,10.391-33.446c-2.75-10.911-14.112-23.365-14.112-23.365
				s13.72-12.462,11.125-30.363c-2.597-17.917-15.01-21.111-20.086-33.564c-5.077-12.454,36.879-23.128,61.2-38.902
				C1435.539,968.953,1384.05,932.713,1352.321,901.587z"/>
			<path style="fill:#898989;" d="M797.633,1680.149c-9.899,206.301,308.348,219.861,318.163,15.266
				C1125.587,1491.424,807.501,1474.475,797.633,1680.149z"/>
		</g>
		<g>
			<path style="fill:#848484;" d="M1362.729,891.179c-8.965-8.795-15.265-16.723-19.761-24.789
				c40.827-406.824-391.456-496.798-721.865-251.913C681.36,723,704.929,771.937,727.907,787.282
				c1.269,0.847,2.441,1.546,3.727,2.253c30.391,16.708,62.39-23.483,180.97-53.845c199.742-51,291.114,99.033,206.5,224.99
				c-65.109,97.017-164.993,123.178-239.711,194.746c-5.597,5.361-10.994,10.923-16.167,16.724
				c-5.511,6.179-10.839,12.679-16.017,19.688c-40.93,55.407-28.121,104.608-18.637,265.843h268.609
				c-26.208-78.865,29.426-217.564,180.79-191.004c92.959,16.367,83.595-57.641,74.866-78.634
				c-8.724-21.111,3.525-39.787,11.559-48.39c8.028-8.596,13.142-22.535,10.391-33.446c-2.75-10.911-14.112-23.365-14.112-23.365
				s13.719-12.462,11.125-30.363c-2.597-17.917-15.011-21.111-20.086-33.564c-5.077-12.454,36.879-23.128,61.199-38.902
				C1445.947,958.545,1394.458,922.305,1362.729,891.179z"/>
			<path style="fill:#848484;" d="M808.041,1669.741c-9.899,206.301,308.348,219.861,318.163,15.266
				C1135.995,1481.016,817.909,1464.067,808.041,1669.741z"/>
		</g>
		<g>
			<path style="fill:#7F7F7F;" d="M1373.137,880.77c-8.965-8.795-15.265-16.723-19.761-24.789
				c40.827-406.824-391.456-496.798-721.865-251.913c60.257,108.522,83.827,157.46,106.805,172.805
				c1.269,0.847,2.441,1.546,3.727,2.253c30.391,16.708,62.39-23.483,180.97-53.845c199.742-51,291.114,99.033,206.499,224.99
				c-65.109,97.017-164.993,123.178-239.711,194.746c-5.597,5.361-10.994,10.923-16.167,16.724
				c-5.512,6.18-10.839,12.679-16.017,19.688c-40.93,55.407-28.121,104.608-18.637,265.843h268.609
				c-26.208-78.865,29.426-217.564,180.79-191.004c92.959,16.367,83.595-57.641,74.866-78.634
				c-8.725-21.111,3.525-39.787,11.559-48.39c8.028-8.596,13.142-22.535,10.391-33.446c-2.75-10.911-14.112-23.365-14.112-23.365
				s13.72-12.461,11.125-30.363c-2.597-17.918-15.011-21.111-20.086-33.564c-5.077-12.454,36.879-23.128,61.199-38.902
				C1456.355,948.137,1404.866,911.897,1373.137,880.77z"/>
			<path style="fill:#7F7F7F;" d="M818.449,1659.332c-9.899,206.301,308.348,219.861,318.164,15.266
				C1146.403,1470.608,828.317,1453.659,818.449,1659.332z"/>
		</g>
		<g>
			<path style="fill:#7A7A7A;" d="M1383.546,870.362c-8.966-8.795-15.265-16.723-19.761-24.788
				c40.827-406.824-391.456-496.798-721.865-251.913c60.257,108.523,83.827,157.46,106.805,172.805
				c1.269,0.847,2.441,1.546,3.727,2.253c30.391,16.708,62.39-23.483,180.97-53.845c199.742-51,291.114,99.033,206.499,224.99
				c-65.109,97.017-164.993,123.178-239.711,194.746c-5.597,5.361-10.994,10.923-16.167,16.724
				c-5.512,6.18-10.839,12.679-16.017,19.688c-40.93,55.407-28.121,104.608-18.637,265.843h268.609
				c-26.208-78.865,29.426-217.564,180.79-191.004c92.959,16.367,83.595-57.641,74.866-78.634
				c-8.725-21.111,3.525-39.787,11.559-48.39c8.028-8.596,13.142-22.535,10.391-33.446c-2.75-10.911-14.112-23.365-14.112-23.365
				s13.72-12.462,11.125-30.363c-2.597-17.917-15.01-21.111-20.086-33.564c-5.077-12.454,36.879-23.128,61.2-38.902
				C1466.764,937.728,1415.275,901.488,1383.546,870.362z"/>
			<path style="fill:#7A7A7A;" d="M828.858,1648.924c-9.899,206.301,308.348,219.861,318.163,15.266
				C1156.812,1460.199,838.726,1443.25,828.858,1648.924z"/>
		</g>
		<g>
			<path style="fill:#757575;" d="M1393.954,859.953c-8.965-8.795-15.265-16.723-19.761-24.789
				c40.827-406.824-391.456-496.798-721.865-251.913c60.257,108.522,83.827,157.459,106.805,172.805
				c1.269,0.847,2.441,1.546,3.727,2.253c30.391,16.708,62.39-23.483,180.97-53.845c199.742-51,291.114,99.033,206.5,224.99
				c-65.109,97.017-164.993,123.178-239.711,194.746c-5.597,5.361-10.994,10.923-16.167,16.724
				c-5.511,6.179-10.839,12.679-16.017,19.688c-40.93,55.407-28.121,104.608-18.637,265.843h268.609
				c-26.208-78.865,29.426-217.564,180.79-191.004c92.959,16.367,83.595-57.641,74.866-78.634
				c-8.725-21.111,3.525-39.787,11.559-48.39c8.028-8.596,13.142-22.535,10.391-33.446c-2.75-10.911-14.112-23.365-14.112-23.365
				s13.72-12.461,11.125-30.363c-2.597-17.918-15.01-21.111-20.086-33.564c-5.077-12.454,36.879-23.127,61.199-38.902
				C1477.172,927.32,1425.683,891.08,1393.954,859.953z"/>
			<path style="fill:#757575;" d="M839.266,1638.516c-9.899,206.301,308.348,219.861,318.164,15.266
				C1167.22,1449.791,849.134,1432.842,839.266,1638.516z"/>
		</g>
		<g>
			<path style="fill:#707070;" d="M1404.362,849.545c-8.965-8.795-15.265-16.723-19.761-24.789
				c40.827-406.824-391.456-496.798-721.865-251.913c60.257,108.523,83.827,157.459,106.805,172.805
				c1.269,0.847,2.441,1.546,3.727,2.253c30.391,16.708,62.39-23.483,180.97-53.846c199.742-51,291.114,99.033,206.5,224.99
				c-65.109,97.017-164.993,123.178-239.711,194.746c-5.597,5.361-10.994,10.924-16.167,16.724
				c-5.511,6.179-10.839,12.679-16.017,19.688c-40.93,55.407-28.122,104.608-18.637,265.843h268.609
				c-26.209-78.865,29.426-217.564,180.79-191.004c92.959,16.367,83.595-57.641,74.866-78.634
				c-8.725-21.111,3.525-39.787,11.559-48.39c8.028-8.596,13.142-22.535,10.391-33.446c-2.75-10.911-14.112-23.365-14.112-23.365
				s13.72-12.461,11.125-30.363c-2.597-17.917-15.01-21.111-20.085-33.564c-5.077-12.454,36.879-23.128,61.199-38.902
				C1487.58,916.912,1436.091,880.672,1404.362,849.545z"/>
			<path style="fill:#707070;" d="M849.674,1628.107c-9.899,206.301,308.348,219.861,318.163,15.266
				C1177.628,1439.383,859.542,1422.433,849.674,1628.107z"/>
		</g>
		<g>
			<path style="fill:#6B6B6B;" d="M1414.771,839.137c-8.965-8.795-15.265-16.723-19.761-24.788
				c40.827-406.824-391.456-496.798-721.865-251.913c60.257,108.522,83.827,157.459,106.805,172.805
				c1.269,0.847,2.441,1.546,3.727,2.253c30.39,16.708,62.39-23.483,180.97-53.845c199.742-51,291.114,99.033,206.5,224.99
				c-65.109,97.017-164.993,123.178-239.711,194.746c-5.597,5.361-10.994,10.924-16.167,16.724
				c-5.511,6.18-10.839,12.679-16.017,19.688c-40.93,55.407-28.122,104.608-18.637,265.843h268.609
				c-26.208-78.865,29.426-217.564,180.79-191.004c92.959,16.367,83.595-57.641,74.866-78.634
				c-8.725-21.111,3.525-39.787,11.559-48.39c8.028-8.596,13.142-22.535,10.391-33.446c-2.75-10.911-14.112-23.365-14.112-23.365
				s13.72-12.461,11.125-30.363c-2.597-17.917-15.011-21.111-20.086-33.564c-5.077-12.454,36.879-23.128,61.199-38.902
				C1497.989,906.503,1446.5,870.263,1414.771,839.137z"/>
			<path style="fill:#6B6B6B;" d="M860.083,1617.699c-9.899,206.301,308.348,219.861,318.164,15.266
				C1188.037,1428.974,869.951,1412.025,860.083,1617.699z"/>
		</g>
		<g>
			<path style="fill:#666666;" d="M1425.179,828.728c-8.984-8.776-15.265-16.723-19.762-24.789
				c40.827-406.824-391.456-496.798-721.865-251.913c60.257,108.522,84.037,157.149,106.805,172.805
				c1.28,0.83,2.443,1.542,3.727,2.253c30.447,16.605,62.39-23.483,180.97-53.846c199.742-51,291.114,99.033,206.5,224.99
				c-65.109,97.017-165.286,122.873-239.711,194.746c-5.619,5.338-11.007,10.912-16.167,16.724
				c-5.525,6.167-10.823,12.69-16.017,19.688c-40.804,55.5-28.121,104.608-18.637,265.843h268.609
				c-26.209-78.865,29.426-217.564,180.79-191.004c92.959,16.367,83.595-57.641,74.866-78.634
				c-8.725-21.111,3.586-39.731,11.559-48.39c8.088-8.54,13.142-22.535,10.391-33.446c-2.75-10.911-14.112-23.365-14.112-23.365
				s13.662-12.453,11.125-30.363c-2.655-17.909-15.01-21.111-20.086-33.564c-5.077-12.454,36.879-23.128,61.199-38.902
				C1508.397,896.095,1456.843,859.921,1425.179,828.728z"/>
			<path style="fill:#666666;" d="M870.491,1607.291c-9.899,206.301,308.348,219.861,318.163,15.266
				C1198.445,1418.566,880.359,1401.617,870.491,1607.291z"/>
		</g>
	</g>
	<g>
		<path style="fill:#00293F;" d="M1425.179,828.728c-8.984-8.776-15.265-16.723-19.762-24.789
			c40.827-406.824-391.456-496.798-721.865-251.913c60.257,108.522,84.037,157.149,106.805,172.805
			c1.28,0.83,2.443,1.542,3.727,2.253c30.447,16.605,62.39-23.483,180.97-53.846c199.742-51,291.114,99.033,206.5,224.99
			c-65.109,97.017-165.286,122.873-239.711,194.746c-5.619,5.338-11.007,10.912-16.167,16.724
			c-5.525,6.167-10.823,12.69-16.017,19.688c-40.804,55.5-28.121,104.608-18.637,265.843h268.609
			c-26.209-78.865,29.426-217.564,180.79-191.004c92.959,16.367,83.595-57.641,74.866-78.634
			c-8.725-21.111,3.586-39.731,11.559-48.39c8.088-8.54,13.142-22.535,10.391-33.446c-2.75-10.911-14.112-23.365-14.112-23.365
			s13.662-12.453,11.125-30.363c-2.655-17.909-15.01-21.111-20.086-33.564c-5.077-12.454,36.879-23.128,61.199-38.902
			C1508.397,896.095,1456.843,859.921,1425.179,828.728z"/>
		<path style="fill:#00293F;" d="M870.491,1607.291c-9.899,206.301,308.348,219.861,318.163,15.266
			C1198.445,1418.566,880.359,1401.617,870.491,1607.291z"/>
	</g>
</g>
</svg>
