<?xml version="1.0" encoding="utf-8"?>
<!-- Generator: Adobe Illustrator 27.5.0, SVG Export Plug-In . SVG Version: 6.00 Build 0)  -->
<svg version="1.1" xmlns="http://www.w3.org/2000/svg" xmlns:xlink="http://www.w3.org/1999/xlink" x="0px" y="0px"
	 viewBox="0 0 500 500" style="enable-background:new 0 0 500 500;" xml:space="preserve">
<g id="Floor">
	<ellipse style="fill:#F5F5F5;" cx="250.474" cy="363.746" rx="209.766" ry="121.109"/>
</g>
<g id="Shadows">
	<ellipse style="fill:#E0E0E0;" cx="217.103" cy="377.74" rx="49.238" ry="28.427"/>
	<ellipse style="fill:#E0E0E0;" cx="300.583" cy="398.15" rx="59.615" ry="34.419"/>
</g>
<g id="Mailbox">
	<g>
		<g>
			<g>
				<path style="fill:#37474F;" d="M229.099,367.682c6.592,3.806,6.592,9.977,0,13.783c-6.592,3.806-17.281,3.806-23.873,0
					c-6.592-3.806-6.592-9.977,0-13.783C211.818,363.876,222.507,363.876,229.099,367.682z"/>
				<rect x="200.281" y="366.859" style="fill:#37474F;" width="33.762" height="7.715"/>
			</g>
			<path style="fill:#455A64;" d="M229.099,359.967c6.592,3.806,6.592,9.977,0,13.783c-6.592,3.806-17.281,3.806-23.873,0
				c-6.592-3.806-6.592-9.977,0-13.783C211.818,356.161,222.507,356.161,229.099,359.967z"/>
		</g>
		<g>
			<path style="fill:#263238;" d="M222.783,361.719c3.104,1.792,3.104,4.698,0,6.49c-3.104,1.792-8.137,1.792-11.241,0
				c-3.104-1.792-3.104-4.698,0-6.49C214.646,359.926,219.679,359.926,222.783,361.719z"/>
			<rect x="209.214" y="219.408" style="fill:#263238;" width="15.898" height="145.555"/>
		</g>
		<g>
			<g>
				<polygon style="fill:#BA68C8;" points="140.607,217.78 140.607,165.15 196.331,133.29 201.351,181.949 				"/>
				<polygon style="opacity:0.5;" points="140.607,217.78 140.607,165.15 196.331,133.29 201.351,181.949 				"/>
				<polygon style="fill:#BA68C8;" points="140.607,217.78 201.351,181.949 201.351,239.224 188.789,245.598 				"/>
				<polygon style="opacity:0.3;" points="140.607,217.78 201.351,181.949 201.351,239.224 188.789,245.598 				"/>
				<g>
					<path style="fill:#BA68C8;" d="M282.097,152.188l-5.76,3.168l-35.057,19.195l-6.337,3.477l-43.822,23.999
						c-2.777-4.701-10.009-26.622-13.846-30.593c-3.827-3.96-8.096-7.396-12.581-9.988c-5.503-3.179-10.657-4.691-15.101-4.691
						c-2.829,0-5.37,0.607-7.52,1.79l86.615-50.004l0.031-0.021l1.718-0.988l0.021-0.01c0.247-0.123,0.504-0.236,0.761-0.34
						c0.257-0.103,0.514-0.195,0.782-0.288c0.01-0.01,0.031-0.01,0.051-0.021c0.257-0.082,0.514-0.164,0.782-0.237
						c0.278-0.082,0.566-0.144,0.854-0.206c0.226-0.051,0.453-0.092,0.679-0.134c0.123-0.021,0.247-0.041,0.37-0.051
						c0.401-0.062,0.813-0.103,1.235-0.134c0.164-0.021,0.339-0.021,0.504-0.031c0.278-0.01,0.555-0.021,0.844-0.021
						c2.222,0,4.629,0.381,7.16,1.152c2.531,0.782,5.205,1.955,7.952,3.539c0.144,0.082,0.288,0.164,0.432,0.257
						C267.346,119.568,279.371,136.881,282.097,152.188z"/>
					<path style="fill:#BA68C8;" d="M142.042,158.562l-0.072,0.042l0.003,0.002C141.997,158.592,142.018,158.575,142.042,158.562z"
						/>
				</g>
				<g style="opacity:0.3;">
					<path d="M282.097,152.188l-5.76,3.168l-35.057,19.195l-6.337,3.477l-43.822,23.999c-2.777-4.701-10.009-26.622-13.846-30.593
						c-3.827-3.96-8.096-7.396-12.581-9.988c-5.503-3.179-10.657-4.691-15.101-4.691c-2.829,0-5.37,0.607-7.52,1.79l86.615-50.004
						l0.031-0.021l1.718-0.988l0.021-0.01c0.247-0.123,0.504-0.236,0.761-0.34c0.257-0.103,0.514-0.195,0.782-0.288
						c0.01-0.01,0.031-0.01,0.051-0.021c0.257-0.082,0.514-0.164,0.782-0.237c0.278-0.082,0.566-0.144,0.854-0.206
						c0.226-0.051,0.453-0.092,0.679-0.134c0.123-0.021,0.247-0.041,0.37-0.051c0.401-0.062,0.813-0.103,1.235-0.134
						c0.164-0.021,0.339-0.021,0.504-0.031c0.278-0.01,0.555-0.021,0.844-0.021c2.222,0,4.629,0.381,7.16,1.152
						c2.531,0.782,5.205,1.955,7.952,3.539c0.144,0.082,0.288,0.164,0.432,0.257C267.346,119.568,279.371,136.881,282.097,152.188z"
						/>
					<path d="M142.042,158.562l-0.072,0.042l0.003,0.002C141.997,158.592,142.018,158.575,142.042,158.562z"/>
				</g>
				<g>
					<path style="fill:#BA68C8;" d="M275.04,133.96l-0.009,0.005c0.075,0.128,0.156,0.254,0.231,0.382
						C275.187,134.218,275.116,134.088,275.04,133.96z"/>
					<path style="fill:#BA68C8;" d="M279.65,143.501c1.108,2.919,1.939,5.838,2.447,8.687l-5.76,3.168l-35.057,19.195l-6.337,3.477
						l-43.822,23.999c0,0,0,0,0,0l-0.003,0.004l3.84,54.259l87.736-50.693v-47.113C282.694,153.741,281.598,148.622,279.65,143.501z
						"/>
					<path style="fill:#BA68C8;" d="M278.349,140.36c-0.37-0.825-0.763-1.647-1.174-2.467
						C277.586,138.713,277.98,139.535,278.349,140.36z"/>
					<path style="fill:#BA68C8;" d="M275.656,135.037c0.429,0.762,0.844,1.527,1.239,2.297
						C276.499,136.565,276.085,135.799,275.656,135.037z"/>
					<path style="fill:#BA68C8;" d="M279.616,143.408c-0.341-0.893-0.712-1.786-1.105-2.677
						C278.903,141.622,279.275,142.514,279.616,143.408z"/>
				</g>
				<g style="opacity:0.5;">
					<path d="M275.04,133.96l-0.009,0.005c0.075,0.128,0.156,0.254,0.231,0.382C275.187,134.218,275.116,134.088,275.04,133.96z"/>
					<path d="M279.65,143.501c1.108,2.919,1.939,5.838,2.447,8.687l-5.76,3.168l-35.057,19.195l-6.337,3.477l-43.822,23.999
						c0,0,0,0,0,0l-0.003,0.004l3.84,54.259l87.736-50.693v-47.113C282.694,153.741,281.598,148.622,279.65,143.501z"/>
					<path d="M278.349,140.36c-0.37-0.825-0.763-1.647-1.174-2.467C277.586,138.713,277.98,139.535,278.349,140.36z"/>
					<path d="M275.656,135.037c0.429,0.762,0.844,1.527,1.239,2.297C276.499,136.565,276.085,135.799,275.656,135.037z"/>
					<path d="M279.616,143.408c-0.341-0.893-0.712-1.786-1.105-2.677C278.903,141.622,279.275,142.514,279.616,143.408z"/>
				</g>
				<path style="fill:#BA68C8;" d="M191.117,202.03"/>
				<path style="fill:#BA68C8;" d="M149.589,162.927c3.491,0,7.649,1.335,12.024,3.861c14.731,8.505,27.177,27.917,27.177,42.39
					v36.421l-48.182-27.818v-43.548C140.607,164.888,145.491,162.927,149.589,162.927 M149.589,156.755
					c-9.059,0-15.153,6.267-15.153,17.478v47.111l60.526,34.945v-47.111c0-16.714-13.549-38.085-30.263-47.735v0
					C159.196,158.266,154.034,156.755,149.589,156.755L149.589,156.755z"/>
			</g>
			<g>
				<path style="fill:#BA68C8;" d="M134.435,221.344l-32.587,17.988c-14.192,7.816-14.398,28.138-0.367,36.24l0,0
					c18.465,10.661,41.214,10.669,59.686,0.018l33.793-19.301L134.435,221.344z"/>
				<path style="opacity:0.2;fill:#FFFFFF;" d="M134.435,221.344l-32.587,17.988c-14.192,7.816-14.398,28.138-0.367,36.24l0,0
					c18.465,10.661,41.214,10.669,59.686,0.018l33.793-19.301L134.435,221.344z"/>
			</g>
		</g>
		<g>
			<g>
				<polygon style="fill:#E0E0E0;" points="215.15,241.935 208.354,245.858 208.354,180.208 215.15,176.285 				"/>
				<polygon style="fill:#E0E0E0;" points="227.989,181.986 208.354,193.322 208.354,180.208 227.989,168.872 				"/>
			</g>
			<g>
				<path style="fill:#BA68C8;" d="M218.077,239.629c0,4.069-2.857,9.018-6.381,11.052c-3.524,2.035-6.381,0.385-6.381-3.684
					s2.857-9.018,6.381-11.052C215.22,233.91,218.077,235.56,218.077,239.629z"/>
				<path style="opacity:0.2;" d="M218.077,239.629c0,4.069-2.857,9.018-6.381,11.052c-3.524,2.035-6.381,0.385-6.381-3.684
					s2.857-9.018,6.381-11.052C215.22,233.91,218.077,235.56,218.077,239.629z"/>
				<path style="fill:#BA68C8;" d="M220.202,240.856c0,4.069-2.857,9.018-6.381,11.052c-3.524,2.035-6.381,0.385-6.381-3.684
					s2.857-9.018,6.381-11.052C217.345,235.137,220.202,236.787,220.202,240.856z"/>
			</g>
		</g>
	</g>
</g>
<g id="Plant">
	<g>
		<g>
			<path style="fill:#BA68C8;" d="M362.716,348.982l11.29,6.558c0,0-5.697-18.186-2.535-36.48
				c1.194-6.905,3.705-10.335,4.592-12.178c0.887-1.843,7.694-13.254,1.701-18.514c-5.992-5.26-20.053,5.203-19.422,33.379
				C358.666,336.207,362.716,348.982,362.716,348.982z"/>
			<path style="opacity:0.3;" d="M362.716,348.982l11.29,6.558c0,0-5.697-18.186-2.535-36.48c1.194-6.905,3.705-10.335,4.592-12.178
				c0.887-1.843,7.694-13.254,1.701-18.514c-5.992-5.26-20.053,5.203-19.422,33.379
				C358.666,336.207,362.716,348.982,362.716,348.982z"/>
			<path style="fill:#FFFFFF;" d="M367.965,352.536c-0.206,0-0.398-0.127-0.474-0.331c-0.043-0.117-4.312-11.971-4.088-30.983
				c0.227-19.126,10.276-29.323,10.378-29.424c0.198-0.196,0.517-0.195,0.713,0.003c0.197,0.197,0.196,0.517-0.002,0.713
				c-0.099,0.099-9.858,10.029-10.079,28.72c-0.222,18.811,3.983,30.508,4.025,30.624c0.096,0.262-0.038,0.552-0.3,0.648
				C368.081,352.526,368.022,352.536,367.965,352.536z"/>
		</g>
		<g>
			<path style="fill:#BA68C8;" d="M371.472,354.105l18.651,10.97c0,0,8.54-1.258,7.894-9.297c-0.647-8.039-4.116-9.933,0.204-13.465
				c4.321-3.532,5.435-3.766,5.229-7.228c-0.206-3.462-2.536-4.972-3.632-6.344c-1.096-1.372-4.151-4.25-2.001-8.426
				c2.15-4.175,5.062-8.209,0.737-10.123c-2.581-1.143-6.923,0.289-9.801,3.344c-2.878,3.055-5.251,5.251-7.978,5.96
				c-2.727,0.709-8.411,0.766-8.219,5.463c0.192,4.698,1.411,6.32,0.271,8.405C370.682,337.292,361.514,339.408,371.472,354.105z"/>
			<path style="fill:#FFFFFF;" d="M379.067,359.077c-0.26,0-0.48-0.2-0.502-0.464c-0.022-0.278-2.053-28.085,17.268-46.347
				c0.203-0.19,0.521-0.183,0.714,0.021c0.191,0.202,0.182,0.522-0.021,0.714c-18.962,17.921-16.978,45.256-16.955,45.53
				c0.023,0.277-0.185,0.521-0.462,0.544C379.096,359.076,379.081,359.077,379.067,359.077z"/>
			<path style="fill:#FFFFFF;" d="M382.411,335.244c-0.262,0-0.482-0.202-0.502-0.468c-0.542-7.299-5.622-11.055-5.673-11.092
				c-0.226-0.163-0.277-0.479-0.114-0.704c0.162-0.226,0.478-0.278,0.704-0.114c0.225,0.161,5.512,4.051,6.089,11.836
				c0.02,0.277-0.188,0.52-0.466,0.54C382.436,335.243,382.424,335.244,382.411,335.244z"/>
			<path style="fill:#FFFFFF;" d="M381.035,339.99c-0.12,0-0.241-0.043-0.337-0.129c-0.208-0.186-0.225-0.506-0.039-0.713
				c0.202-0.225,5.061-5.479,16.305-3.936c0.276,0.038,0.47,0.293,0.432,0.568c-0.038,0.277-0.295,0.468-0.568,0.432
				c-10.717-1.472-15.371,3.56-15.416,3.609C381.31,339.934,381.173,339.99,381.035,339.99z"/>
		</g>
	</g>
</g>
<g id="Paper_plane">
	<g>
		<path style="fill:#263238;" d="M157.35,190.533c-0.887,0-1.786-0.039-2.674-0.114c-0.507-0.043-0.882-0.489-0.839-0.995
			c0.043-0.507,0.497-0.888,0.995-0.839c1.187,0.101,2.389,0.133,3.566,0.088c0.501-0.006,0.934,0.377,0.954,0.886
			c0.019,0.508-0.378,0.935-0.886,0.954C158.095,190.526,157.723,190.533,157.35,190.533z M162.092,190.149
			c-0.442,0-0.833-0.32-0.907-0.771c-0.083-0.501,0.257-0.975,0.759-1.058c1.177-0.194,2.342-0.466,3.462-0.81
			c0.489-0.15,1.001,0.125,1.149,0.61c0.149,0.486-0.124,1.001-0.61,1.15c-1.198,0.368-2.443,0.659-3.702,0.867
			C162.191,190.145,162.142,190.149,162.092,190.149z M151.113,189.894c-0.061,0-0.124-0.006-0.186-0.019
			c-1.234-0.254-2.465-0.583-3.657-0.977c-0.482-0.16-0.744-0.68-0.585-1.163c0.16-0.482,0.684-0.746,1.163-0.584
			c1.125,0.372,2.286,0.682,3.45,0.922c0.498,0.102,0.818,0.589,0.716,1.087C151.924,189.594,151.541,189.894,151.113,189.894z
			 M169.105,187.984c-0.346,0-0.677-0.195-0.833-0.528c-0.217-0.46-0.021-1.008,0.439-1.225c0.214-0.1,0.426-0.204,0.638-0.312
			c0.45-0.23,1.007-0.051,1.237,0.403c0.23,0.453,0.05,1.007-0.403,1.238c-0.227,0.116-0.457,0.228-0.686,0.336
			C169.37,187.956,169.236,187.984,169.105,187.984z M144.138,187.586c-0.13,0-0.262-0.027-0.388-0.086
			c-1.13-0.527-2.252-1.124-3.333-1.777c-0.436-0.263-0.575-0.829-0.313-1.264c0.264-0.436,0.829-0.576,1.264-0.313
			c1.025,0.619,2.088,1.186,3.159,1.684c0.461,0.215,0.66,0.762,0.445,1.223C144.817,187.39,144.484,187.586,144.138,187.586z
			 M137.844,183.794c-0.192,0-0.386-0.06-0.552-0.184c-0.987-0.741-1.963-1.551-2.9-2.407c-0.375-0.343-0.401-0.925-0.059-1.3
			c0.344-0.375,0.925-0.401,1.301-0.059c0.893,0.816,1.823,1.588,2.764,2.293c0.406,0.305,0.488,0.882,0.184,1.289
			C138.4,183.667,138.124,183.794,137.844,183.794z M132.41,178.84c-0.249,0-0.498-0.101-0.68-0.3
			c-0.835-0.913-1.646-1.884-2.413-2.883c-0.31-0.403-0.233-0.981,0.17-1.29c0.405-0.31,0.98-0.233,1.291,0.17
			c0.734,0.958,1.512,1.886,2.311,2.762c0.343,0.375,0.316,0.957-0.059,1.3C132.855,178.761,132.632,178.84,132.41,178.84z
			 M127.934,173.007c-0.303,0-0.599-0.149-0.774-0.422c-0.403-0.626-0.789-1.26-1.159-1.903c-0.255-0.441-0.502-0.888-0.742-1.34
			c-0.237-0.449-0.066-1.006,0.382-1.244c0.449-0.239,1.006-0.067,1.245,0.382c0.228,0.432,0.466,0.86,0.71,1.283
			c0.355,0.618,0.726,1.227,1.111,1.827c0.275,0.427,0.152,0.997-0.275,1.272C128.276,172.96,128.105,173.007,127.934,173.007z
			 M124.487,166.509c-0.357,0-0.698-0.21-0.847-0.56c-0.494-1.161-0.936-2.348-1.314-3.528c-0.154-0.484,0.112-1.002,0.596-1.157
			c0.487-0.155,1.003,0.112,1.158,0.596c0.36,1.127,0.783,2.261,1.254,3.369c0.199,0.468-0.019,1.008-0.486,1.208
			C124.729,166.485,124.607,166.509,124.487,166.509z M122.25,159.505c-0.425,0-0.806-0.295-0.898-0.727
			c-0.268-1.243-0.469-2.498-0.597-3.732c-0.053-0.505,0.314-0.958,0.819-1.011c0.13-0.016,0.263,0.001,0.382,0.041
			c0.137-0.237,0.378-0.412,0.671-0.453c1.174-0.164,2.334-0.42,3.447-0.763c0.489-0.147,1.001,0.124,1.15,0.609
			c0.149,0.486-0.124,1.001-0.609,1.15c-1.207,0.371-2.463,0.648-3.734,0.826c-0.078,0.01-0.156,0.011-0.228,0.003
			c0.12,0.976,0.287,1.962,0.497,2.94c0.107,0.497-0.209,0.987-0.706,1.094C122.379,159.499,122.314,159.505,122.25,159.505z
			 M119.084,155.688c-0.003,0-0.006,0-0.01,0c-1.251-0.013-2.527-0.116-3.794-0.307c-0.503-0.076-0.849-0.544-0.773-1.047
			c0.076-0.503,0.544-0.845,1.047-0.773c1.183,0.178,2.374,0.274,3.54,0.286c0.508,0.005,0.916,0.422,0.91,0.93
			C119.999,155.282,119.588,155.688,119.084,155.688z M111.822,154.607c-0.083,0-0.169-0.011-0.253-0.036
			c-1.206-0.345-2.409-0.773-3.576-1.27c-0.467-0.199-0.685-0.74-0.485-1.208c0.2-0.469,0.74-0.685,1.208-0.486
			c1.096,0.467,2.227,0.869,3.359,1.193c0.489,0.14,0.771,0.649,0.632,1.138C112.592,154.344,112.223,154.607,111.822,154.607z
			 M129.754,153.284c-0.333,0-0.655-0.181-0.818-0.498c-0.233-0.452-0.057-1.007,0.395-1.24c1.084-0.561,2.052-1.206,2.879-1.918
			c0.384-0.332,0.964-0.29,1.298,0.096c0.332,0.385,0.289,0.966-0.097,1.298c-0.935,0.807-2.023,1.533-3.234,2.159
			C130.04,153.251,129.895,153.284,129.754,153.284z M121.501,152.197c-0.004,0-0.008,0-0.013,0
			c-0.508-0.007-0.914-0.425-0.907-0.933c0.017-1.279,0.115-2.553,0.291-3.786c0.071-0.504,0.531-0.856,1.041-0.781
			c0.504,0.072,0.854,0.538,0.781,1.041c-0.165,1.155-0.257,2.35-0.273,3.551C122.414,151.794,122.004,152.197,121.501,152.197z
			 M105.062,151.73c-0.156,0-0.314-0.04-0.459-0.124c-1.095-0.632-2.158-1.336-3.162-2.092c-0.406-0.306-0.487-0.883-0.182-1.289
			c0.305-0.406,0.883-0.487,1.289-0.182c0.944,0.711,1.945,1.374,2.975,1.969c0.44,0.254,0.591,0.817,0.337,1.257
			C105.688,151.564,105.38,151.73,105.062,151.73z M135.182,148.453c-0.158,0-0.318-0.04-0.465-0.126
			c-0.438-0.257-0.585-0.821-0.328-1.26c0.271-0.463,0.495-0.943,0.665-1.429c0.182-0.516,0.295-1.067,0.337-1.641
			c0.037-0.507,0.457-0.888,0.985-0.851c0.507,0.037,0.888,0.478,0.851,0.985c-0.054,0.737-0.2,1.45-0.436,2.117
			c-0.209,0.596-0.482,1.186-0.814,1.751C135.805,148.29,135.497,148.453,135.182,148.453z M99.201,147.307
			c-0.231,0-0.462-0.086-0.641-0.26c-0.209-0.202-0.414-0.407-0.615-0.615c-0.666-0.687-1.319-1.421-1.938-2.183
			c-0.321-0.395-0.261-0.974,0.134-1.295c0.393-0.322,0.975-0.26,1.294,0.134c0.585,0.72,1.201,1.414,1.832,2.063
			c0.189,0.196,0.381,0.387,0.574,0.576c0.365,0.354,0.374,0.936,0.02,1.301C99.681,147.213,99.441,147.307,99.201,147.307z
			 M122.561,144.933c-0.089,0-0.18-0.013-0.27-0.04c-0.485-0.148-0.759-0.663-0.61-1.149c0.414-1.354,0.949-2.557,1.592-3.576
			c0.271-0.43,0.837-0.558,1.27-0.288c0.43,0.271,0.559,0.839,0.287,1.27c-0.555,0.88-1.021,1.935-1.389,3.132
			C123.319,144.678,122.955,144.933,122.561,144.933z M94.561,141.612c-0.302,0-0.597-0.148-0.772-0.419
			c-0.673-1.036-1.309-2.134-1.89-3.266c-0.232-0.452-0.055-1.007,0.397-1.239c0.454-0.232,1.007-0.054,1.239,0.398
			c0.553,1.076,1.157,2.12,1.796,3.105c0.277,0.426,0.156,0.996-0.271,1.273C94.906,141.564,94.732,141.612,94.561,141.612z
			 M135.733,141.38c-0.36,0-0.703-0.214-0.851-0.568c-0.433-1.044-1.094-1.886-1.912-2.435c-0.422-0.283-0.535-0.855-0.252-1.277
			c0.283-0.42,0.855-0.535,1.277-0.252c1.12,0.751,2.016,1.878,2.588,3.259c0.194,0.47-0.028,1.008-0.498,1.203
			C135.971,141.358,135.852,141.38,135.733,141.38z M126.562,138.923c-0.296,0-0.586-0.142-0.764-0.405
			c-0.284-0.421-0.174-0.993,0.247-1.278c1.196-0.808,2.529-1.296,3.856-1.411c0.499-0.052,0.952,0.331,0.996,0.838
			c0.044,0.506-0.331,0.952-0.838,0.996c-1.015,0.087-2.046,0.469-2.982,1.102C126.918,138.872,126.738,138.923,126.562,138.923z
			 M91.191,135.078c-0.365,0-0.711-0.219-0.854-0.579c-0.458-1.147-0.876-2.341-1.24-3.55c-0.147-0.487,0.128-1.001,0.615-1.147
			c0.484-0.148,1,0.128,1.146,0.615c0.35,1.158,0.749,2.301,1.188,3.399c0.188,0.472-0.041,1.007-0.514,1.196
			C91.421,135.057,91.306,135.078,91.191,135.078z M89.06,128.039c-0.425,0-0.807-0.296-0.899-0.729
			c-0.258-1.209-0.473-2.453-0.64-3.697c-0.067-0.503,0.286-0.967,0.79-1.034c0.5-0.065,0.967,0.286,1.034,0.79
			c0.16,1.197,0.368,2.394,0.616,3.557c0.105,0.497-0.211,0.986-0.708,1.092C89.188,128.032,89.123,128.039,89.06,128.039z
			 M88.081,120.747c-0.483,0-0.89-0.378-0.918-0.867c-0.058-0.988-0.086-1.989-0.086-2.976c0-0.257,0.002-0.514,0.006-0.771
			c0.009-0.508,0.458-0.918,0.935-0.906c0.508,0.008,0.913,0.426,0.905,0.935c-0.004,0.247-0.006,0.495-0.006,0.743
			c0,0.951,0.028,1.917,0.084,2.869c0.029,0.507-0.358,0.942-0.865,0.972C88.117,120.747,88.1,120.747,88.081,120.747z"/>
		<g>
			<polygon style="fill:#BA68C8;" points="97.263,87.301 91.76,111.196 31.704,98.306 			"/>
			<polygon style="opacity:0.3;" points="97.263,87.301 91.76,111.196 31.704,98.306 			"/>
			<path style="fill:#BA68C8;" d="M31.704,98.306c-0.016,0.009,74.774-2.026,74.774-2.026l17.577,27.081L31.704,98.306z"/>
			<polygon style="fill:#BA68C8;" points="31.704,98.306 97.263,87.301 81.815,69.376 			"/>
		</g>
	</g>
</g>
<g id="Character">
	<g style="opacity:0.4;">
		<path d="M172.333,168.086l-0.072,0.042l0.003,0.002C172.288,168.115,172.309,168.099,172.333,168.086z"/>
	</g>
	<g>
		<g>
			
				<rect x="275.943" y="347.139" transform="matrix(0.9997 0.0255 -0.0255 0.9997 9.3426 -7.1125)" style="fill:#945959;" width="15.829" height="32.053"/>
			<path style="fill:#37474F;" d="M271.384,218.699c0,0-1.109,54.52-0.732,76.125c0.284,16.264,2.823,65.005,2.823,65.005
				s10.264,6.706,21.077,1.106c0,0,6.239-49.226,4.715-64.052c-0.185-1.803-0.172-3.614,0.036-5.414l9.537-82.543L271.384,218.699z"
				/>
			<path style="fill:#37474F;" d="M281.036,374.548c0,0,8.778-1.008,10.547-3.859v-1.856c0,0,1.521,0.812,1.232,3.891
				c-0.269,2.86,0.878,7.727,1.043,13.666c0.027,0.982-0.421,1.917-1.199,2.517c-1.695,1.31-5.293,3.322-11.622,3.598
				c-2.22,0.097-11.094,5.787-18.484,5.787c-7.39,0-12.217-3.663-12.217-8.78c0-5.117,15.061-9.751,15.061-9.751l7.241-7.037
				c0,0-1.405-7.636,3.208-5.803C280.457,368.755,281.036,370.686,281.036,374.548z"/>
			<path style="fill:#FAFAFA;" d="M279.396,378.966c-0.192,0-0.372-0.122-0.436-0.314c-1.536-4.608-6.35-5.466-6.399-5.474
				c-0.251-0.042-0.42-0.279-0.378-0.53c0.043-0.25,0.286-0.417,0.53-0.378c0.22,0.037,5.41,0.964,7.119,6.091
				c0.08,0.241-0.05,0.502-0.291,0.582C279.493,378.959,279.443,378.966,279.396,378.966z"/>
			<path style="fill:#FAFAFA;" d="M276.509,381.856c-0.192,0-0.372-0.122-0.436-0.314c-1.531-4.592-6.35-5.465-6.398-5.473
				c-0.25-0.043-0.419-0.28-0.376-0.531c0.042-0.251,0.282-0.416,0.529-0.377c0.22,0.037,5.409,0.964,7.118,6.09
				c0.08,0.241-0.05,0.502-0.291,0.582C276.606,381.85,276.557,381.856,276.509,381.856z"/>
			<path style="fill:#FAFAFA;" d="M273.953,384.342c-0.192,0-0.372-0.122-0.436-0.314c-1.531-4.593-6.35-5.466-6.398-5.474
				c-0.25-0.043-0.419-0.28-0.376-0.531c0.042-0.251,0.283-0.416,0.529-0.377c0.22,0.037,5.409,0.964,7.118,6.091
				c0.08,0.241-0.05,0.502-0.291,0.582C274.051,384.335,274.001,384.342,273.953,384.342z"/>
			<path style="fill:#EBEBEB;" d="M250.335,389.512c0,5.06,4.725,8.692,11.976,8.772l10.351-4.153c0-10.732-7.266-14.37-7.266-14.37
				S250.335,384.395,250.335,389.512z"/>
			<g>
				<path style="fill:#263238;" d="M293.603,386.835c-1.772,1.37-5.536,3.475-12.156,3.763c-2.323,0.101-11.604,6.053-19.333,6.053
					c-5.305,0-9.346-1.805-11.36-4.667c1.309,3.782,5.666,6.308,11.798,6.308c7.39,0,16.264-5.69,18.484-5.787
					c6.33-0.275,9.928-2.288,11.622-3.598c0.719-0.556,1.139-1.401,1.179-2.302C293.758,386.681,293.691,386.767,293.603,386.835z"
					/>
			</g>
		</g>
		<path style="fill:#263238;" d="M280.553,226.326c0,0,1.448,12.34,10.91,18.865l8.351,41.867l5.359-52.347L280.553,226.326z"/>
		<g>
			
				<rect x="320.354" y="356.697" transform="matrix(0.997 -0.078 0.078 0.997 -28.0555 26.7231)" style="fill:#945959;" width="15.829" height="32.053"/>
			<path style="fill:#37474F;" d="M328.826,219.954c0,0,1.91,7.227,2.838,37.055c0.735,23.638,1.288,37.238,1.486,41.864
				c0.049,1.152,0.174,2.29,0.369,3.426c0.757,4.406,2.811,17.534,3.9,36.044c1.352,22.978,1.458,33.888,1.458,33.888
				s-9.761,7.626-21.54,1.64l-11.392-68.547l-11.971-63.6c0,0-16.456-6.274-17.908-23.026L328.826,219.954z"/>
			<path style="fill:#37474F;" d="M336.835,380.756l0.244,3.121c0,0-1.881,2.642-4.102,3.415c0,0-1.695-6.216-4.709-6.535
				c-3.014-0.319-9.258-0.593-8.421,2.867c0.837,3.459,0.869,5.503,0.869,5.503l-5.793,10.813c0,0-11.778,10.137-6.855,16.606
				c4.924,6.469,21.434,3.013,23.061-7.141c0.496-3.093,2.33-5.796,4.937-7.534c2.607-1.738,3.11-4.151,2.81-6.468
				c-0.3-2.317-1.004-6.781-0.783-8.796C338.316,384.591,338.858,380.786,336.835,380.756z"/>
			<path style="fill:#EBEBEB;" d="M308.069,416.544c4.088,5.37,16.154,3.895,21.067-2.569c0.21-1.001,0.329-2.062,0.329-3.188
				c0-11.549-14.541-10.849-14.541-10.849S303.145,410.076,308.069,416.544z"/>
			<g>
				<path style="fill:#263238;" d="M338.877,395.401c-0.022-0.171-0.05-0.375-0.076-0.567c-0.218,1.665-1.025,3.264-2.908,4.52
					c-2.694,1.796-4.591,4.591-5.103,7.787c-1.663,10.379-18.363,13.98-23.655,7.593c0.194,0.626,0.495,1.234,0.934,1.811
					c4.924,6.469,21.434,3.013,23.061-7.141c0.496-3.093,2.33-5.796,4.937-7.534C338.673,400.132,339.177,397.718,338.877,395.401z"
					/>
			</g>
			<path style="fill:#FAFAFA;" d="M329.267,391.542c-0.113,0-0.227-0.041-0.315-0.125c-3.522-3.325-8.18-1.815-8.228-1.8
				c-0.241,0.078-0.502-0.05-0.582-0.29c-0.081-0.24,0.048-0.501,0.288-0.582c0.212-0.072,5.224-1.709,9.152,2.002
				c0.186,0.175,0.193,0.466,0.02,0.65C329.511,391.494,329.389,391.542,329.267,391.542z"/>
			<path style="fill:#FAFAFA;" d="M327.254,395.551c-0.113,0-0.227-0.041-0.316-0.125c-3.52-3.324-8.179-1.816-8.226-1.8
				c-0.235,0.077-0.502-0.049-0.582-0.29c-0.081-0.24,0.048-0.501,0.288-0.582c0.212-0.072,5.221-1.708,9.152,2.002
				c0.185,0.175,0.192,0.466,0.019,0.651C327.498,395.503,327.376,395.551,327.254,395.551z"/>
			<path style="fill:#FAFAFA;" d="M325.242,399.56c-0.113,0-0.227-0.041-0.316-0.125c-3.519-3.324-8.179-1.816-8.226-1.8
				c-0.236,0.077-0.501-0.049-0.582-0.29c-0.081-0.24,0.048-0.501,0.288-0.582c0.213-0.072,5.221-1.709,9.152,2.002
				c0.185,0.175,0.192,0.466,0.018,0.651C325.486,399.513,325.364,399.56,325.242,399.56z"/>
		</g>
		<path style="fill:#945959;" d="M224.061,90.601c0,0-1.731-7.434-1.972-12.261c-0.241-4.827-1.641-6.517-4.586-4.103
			c-2.945,2.414-9.675,9.447-9.268,14.916c0.469,6.318,1.914,11.182,5.587,17.051l12.04-4.464L224.061,90.601z"/>
		<path style="fill:#945959;" d="M261.341,134.319l-17.233-3.809c0,0-7.337-11.888-11.585-18.157
			c-4.248-6.269-6.662-10.613-6.662-10.613l-12.04,4.464c0,0,13.412,33.33,19.628,38.951c3.128,2.829,23.354,9.088,23.354,9.088
			S265.251,145.325,261.341,134.319z"/>
		<path style="fill:#BA68C8;" d="M283.064,139.001l-21.723-4.682c0,0-0.097,9.823-4.538,19.924l21.819,6.722L283.064,139.001z"/>
		<path style="opacity:0.3;fill:#FFFFFF;" d="M283.064,139.001l-21.723-4.682c0,0-0.097,9.823-4.538,19.924l21.819,6.722
			L283.064,139.001z"/>
		<path style="fill:#BA68C8;" d="M313.189,141.608l10.098,3.186l5.539,29.881l-3.281,14.483c-0.448,1.978-0.531,4.021-0.245,6.029
			l3.526,24.768c0,0-10.041,6.372-28.384,6.372s-29.058-7.627-29.058-7.627l1.388-56.379c0.531-8.754,4.182-17.027,10.291-23.319
			l0,0l12.527,1.448L313.189,141.608z"/>
		<g>
			<g>
				<path style="fill:#263238;" d="M281.353,94.179c0,0-9.653,8.472-1.264,27.356l9.814-25.527L281.353,94.179z"/>
				<g>
					<g>
						<polygon style="fill:#945959;" points="313.189,141.608 295.59,140.449 295.59,117.655 313.189,117.655 						"/>
					</g>
				</g>
				<path style="fill:#703838;" d="M295.59,139.001c5.938,0,14.949-5.292,14.949-8.969l1.979-12.377H295.59V139.001z"/>
				<path style="fill:#945959;" d="M300.272,88.947c-5.924,0-18.516,3.301-19.969,18.797c-1.453,15.496,0.814,28.674,7.948,28.674
					c14.007,0,27.455-1.779,27.565-24.699C315.913,91.505,306.049,88.947,300.272,88.947z"/>
				<path style="fill:#263238;" d="M313.189,125.296l-2.282-7.003c-0.764,0.647-1.935,0.104-1.935-0.897v-12.486
					c0,0-5.821-1.649-5.205-6.548c0,0-2.976,2.663-14.405,2.663c-11.429,0-14.205-9.683-13.062-15.072c0,0,2.122,2.185,8.164,2.185
					c6.041,0,31.185-7.59,31.839,7.603c0,0,2.123-3.111,5.551,0l-4.408,2.621c0,0,5.225-0.165,4.408,7.51
					c-0.537,5.049-2.384,13.882-3.586,19.336c-0.671,3.047-2.489,5.71-5.078,7.451l0,0V125.296z"/>
				<polygon style="fill:#703838;" points="291.607,112.396 291.607,122.347 285.78,120.558 				"/>
				<g>
					<path style="fill:#263238;" d="M300.873,113.977c0,1.028-0.834,1.862-1.862,1.862s-1.862-0.834-1.862-1.862
						s0.834-1.862,1.862-1.862S300.873,112.948,300.873,113.977z"/>
					<path style="fill:#263238;" d="M286.939,112.678c0,1.028-0.834,1.862-1.862,1.862c-1.028,0-1.862-0.834-1.862-1.862
						c0-1.028,0.834-1.862,1.862-1.862C286.105,110.816,286.939,111.65,286.939,112.678z"/>
					<path style="fill:#263238;" d="M282.809,108.801l3.641-2.162c0,0-1.398-1.452-2.788-0.58
						C282.27,106.931,282.809,108.801,282.809,108.801z"/>
					<path style="fill:#263238;" d="M302.795,110.146l-3.641-2.162c0,0,1.398-1.452,2.788-0.58
						C303.334,108.276,302.795,110.146,302.795,110.146z"/>
				</g>
				<path style="fill:#703838;" d="M292.081,127.127c0,0,2.7-1.731,5.296-3.68c0,0,1.512,2.942-0.862,4.464
					C294.142,129.433,292.081,127.127,292.081,127.127z"/>
				<polygon style="fill:#253239;" points="310.749,118.404 317.193,111.416 312.563,108.635 				"/>
				<path style="fill:#945959;" d="M311.814,115.682c-2.109,3.653-1.568,8.094,1.375,9.614c1.891,0.977,7.475-1.13,9.584-4.783
					c2.109-3.653,0.923-6.79-1.945-8.447C317.959,110.41,313.923,112.029,311.814,115.682z"/>
			</g>
			<path style="fill:#945959;" d="M295.59,140.449l-2.405,3.807c-1.962,3.107-0.79,7.23,2.513,8.841h0
				c5.994,2.922,13.202,0.039,15.527-6.211l1.964-5.279L295.59,140.449z"/>
		</g>
		<path style="fill:#945959;" d="M225.861,101.739c0,0,2.938-4.477,2.889-8.725c-0.048-4.248,0.483-6.227,1.207-7.241
			c0.724-1.014-0.09-2.51-2.048-1.979c-1.658,0.45-3.712,2.975-4.156,5.351c-0.141,0.755-0.598,1.418-1.275,1.782
			c-2.073,1.115-5.924,4.29-4.095,12.013L225.861,101.739z"/>
		<path style="fill:#703838;" d="M218.041,97.663c-0.018,0-0.035-0.001-0.054-0.004c-0.189-0.029-0.316-0.206-0.287-0.395
			c0.622-3.954,3.158-5.857,4.614-6.641c0.572-0.308,0.974-0.87,1.1-1.542c0.034-0.187,0.21-0.312,0.402-0.276
			c0.188,0.035,0.311,0.216,0.275,0.403c-0.164,0.878-0.693,1.616-1.451,2.023c-1.343,0.722-3.683,2.48-4.259,6.14
			C218.355,97.541,218.208,97.663,218.041,97.663z"/>
		<path style="fill:#945959;" d="M233.54,81.276"/>
		<g>
			<polygon style="fill:#945959;" points="324.771,181.626 329.212,190.99 352,200.008 342.81,172.164 			"/>
			<g>
				<path style="fill:#BA68C8;" d="M321.94,144.368c0,0-7.595,7.811-4.313,18.817c3.283,11.006,7.144,18.44,7.144,18.44
					s12.811,0.386,18.039-9.462l-6.53-16.481c-2.078-5.246-6.513-9.203-11.961-10.673L321.94,144.368z"/>
				<path style="opacity:0.3;fill:#FFFFFF;" d="M321.94,144.368c0,0-7.595,7.811-4.313,18.817c3.283,11.006,7.144,18.44,7.144,18.44
					s12.811,0.386,18.039-9.462l-6.53-16.481c-2.078-5.246-6.513-9.203-11.961-10.673L321.94,144.368z"/>
			</g>
			<path style="fill:#945959;" d="M327.935,189.253c5.757,1.69,22.739,6.716,22.739,6.716s0.13,0.367,1.326,4.039
				c1.842,5.654-3.971,19.327-24.675,9.403c-20.704-9.924-28.235-15.234-28.235-15.234l2.245-12.549
				C301.335,181.628,321.357,187.322,327.935,189.253z"/>
			<polygon style="fill:#703838;" points="328.536,189.537 339.253,192.626 327.259,186.844 			"/>
			<g>
				<path style="fill:#37474F;" d="M298.14,199.814l-13.443-1.43c-0.984-0.105-1.801-0.805-2.055-1.761l-7.347-27.639
					c-0.217-0.816,0.422-1.607,1.265-1.567l12.996,0.611c0.992,0.047,1.841,0.727,2.103,1.684l7.817,28.531
					C299.708,199.091,299.014,199.907,298.14,199.814z"/>
				<path style="fill:#263238;" d="M280.553,171.488c0,0.64-0.519,1.159-1.159,1.159c-0.64,0-1.159-0.519-1.159-1.159
					c0-0.64,0.519-1.159,1.159-1.159C280.035,170.33,280.553,170.848,280.553,171.488z"/>
			</g>
			<path style="fill:#945959;" d="M301.335,181.628c0,0-3.886-6.76-8.714-8.401l1.931,7.434c0,0-3.669,0.29-7.82,0.29
				c-4.151,0-8.689-2.798-10.041-3.523c-1.352-0.725-2.534,4.306,2.691,13.762c5.225,9.456,19.707,2.988,19.707,2.988
				L301.335,181.628z"/>
		</g>
	</g>
</g>
<g id="Clouds">
	<g>
		<path style="fill:#E6E6E6;" d="M360.064,45.633l7.238,4.118v-2.562c-0.011-0.183-0.023-0.365-0.023-0.544
			c0-0.179,0.012-0.348,0.023-0.517v-0.06l0.003,0.001c0.26-3.395,2.831-4.696,5.969-2.884c1.337,0.772,2.567,1.993,3.564,3.423
			c0.708-4.611,4.469-6.276,9.016-3.65C390.905,45.873,395,52.966,395,58.799l0.004,5.488c0.001,0.884,0.469,1.701,1.232,2.148
			l4.258,2.498c1.879,1.102,3.033,3.117,3.033,5.295c0,1.946-2.107,3.163-3.793,2.189l-39.561-22.853
			c-2.138-1.235-3.455-3.517-3.455-5.986C356.719,45.861,358.572,44.784,360.064,45.633z"/>
		<path style="fill:#E6E6E6;" d="M391.44,91.677l5.354,3.046v-1.895c-0.008-0.135-0.017-0.27-0.017-0.403
			c0-0.132,0.009-0.258,0.017-0.383v-0.045l0.002,0.001c0.193-2.511,2.094-3.474,4.415-2.134c0.989,0.571,1.899,1.475,2.636,2.532
			c0.523-3.411,3.306-4.642,6.67-2.7c3.737,2.157,6.766,7.404,6.766,11.719l0.003,4.06c0.001,0.654,0.347,1.258,0.911,1.589
			l3.15,1.848c1.39,0.815,2.243,2.306,2.243,3.917c0,1.44-1.559,2.34-2.806,1.619l-29.265-16.905
			c-1.581-0.914-2.556-2.601-2.556-4.428C388.965,91.846,390.336,91.049,391.44,91.677z"/>
	</g>
</g>
</svg>
